{
	"asset":{
		"generator":"Khronos glTF Blender I/O v4.1.62",
		"version":"2.0"
	},
	"scene":0,
	"scenes":[
		{
			"name":"Scene",
			"nodes":[
				0
			]
		}
	],
	"nodes":[
		{
			"mesh":0,
			"name":"Circle.001",
			"rotation":[
				0,
				-0.20814494788646698,
				0,
				0.9780980348587036
			],
			"scale":[
				0.17790545523166656,
				0.1634146124124527,
				0.40854060649871826
			],
			"translation":[
				0,
				0.001923292875289917,
				0
			]
		}
	],
	"meshes":[
		{
			"name":"Circle.001",
			"primitives":[
				{
					"attributes":{
						"POSITION":0,
						"NORMAL":1,
						"TEXCOORD_0":2
					},
					"indices":3
				}
			]
		}
	],
	"accessors":[
		{
			"bufferView":0,
			"componentType":5126,
			"count":3923,
			"max":[
				11.221882820129395,
				4.707671165466309,
				4.179244518280029
			],
			"min":[
				-11.29312801361084,
				-1.1368683772161603e-13,
				-4.182088851928711
			],
			"type":"VEC3"
		},
		{
			"bufferView":1,
			"componentType":5126,
			"count":3923,
			"type":"VEC3"
		},
		{
			"bufferView":2,
			"componentType":5126,
			"count":3923,
			"type":"VEC2"
		},
		{
			"bufferView":3,
			"componentType":5123,
			"count":14544,
			"type":"SCALAR"
		}
	],
	"bufferViews":[
		{
			"buffer":0,
			"byteLength":47076,
			"byteOffset":0,
			"target":34962
		},
		{
			"buffer":0,
			"byteLength":47076,
			"byteOffset":47076,
			"target":34962
		},
		{
			"buffer":0,
			"byteLength":31384,
			"byteOffset":94152,
			"target":34962
		},
		{
			"buffer":0,
			"byteLength":29088,
			"byteOffset":125536,
			"target":34963
		}
	],
	"buffers":[
		{
			"byteLength":154624,
			"uri":"Carier.bin"
		}
	]
}
